<svg width="1200" height="497" viewBox="0 0 1200 497" fill="none" xmlns="http://www.w3.org/2000/svg">
<rect width="1200" height="497" fill="url(#paint0_radial_2_278)"/>
<path d="M591.62 209C592.736 208.628 593.439 208.132 593.728 207.512C594.017 206.892 594.162 205.735 594.162 204.04V178.62C594.162 176.925 594.017 175.768 593.728 175.148C593.439 174.528 592.736 174.032 591.62 173.66H596.518L610.53 205.962L624.17 173.66H629.192C628.076 174.032 627.373 174.528 627.084 175.148C626.795 175.768 626.65 176.925 626.65 178.62V204.04C626.65 205.735 626.795 206.892 627.084 207.512C627.373 208.132 628.076 208.628 629.192 209H621.628C622.744 208.628 623.447 208.132 623.736 207.512C624.025 206.892 624.17 205.735 624.17 204.04V175.272L609.91 209H609.166L594.782 175.954V204.04C594.782 205.735 594.927 206.892 595.216 207.512C595.505 208.132 596.208 208.628 597.324 209H591.62ZM641.291 209.31C638.728 209.31 636.537 208.69 634.719 207.45C632.941 206.21 631.598 204.598 630.689 202.614C629.821 200.63 629.387 198.481 629.387 196.166C629.387 193.81 629.821 191.661 630.689 189.718C631.557 187.775 632.879 186.225 634.657 185.068C636.434 183.869 638.604 183.27 641.167 183.27C643.605 183.27 645.548 183.89 646.995 185.13C648.483 186.329 649.227 187.961 649.227 190.028C649.227 191.888 648.731 193.479 647.739 194.802C646.788 196.083 645.61 197.137 644.205 197.964C642.841 198.749 641.043 199.659 638.811 200.692C637.86 201.105 636.909 201.539 635.959 201.994C635.008 202.449 634.243 202.903 633.665 203.358C634.533 204.846 635.628 206.024 636.951 206.892C638.273 207.719 639.823 208.132 641.601 208.132C643.585 208.132 645.197 207.553 646.437 206.396C647.677 205.197 648.297 203.813 648.297 202.242C648.297 201.291 648.049 200.382 647.553 199.514C647.057 198.646 646.333 197.902 645.383 197.282C646.54 197.861 647.408 198.667 647.987 199.7C648.565 200.692 648.855 201.746 648.855 202.862C648.855 204.598 648.173 206.107 646.809 207.388C645.486 208.669 643.647 209.31 641.291 209.31ZM633.355 202.8C634.305 202.097 635.855 201.167 638.005 200.01C639.947 198.935 641.497 198.005 642.655 197.22C643.812 196.435 644.783 195.463 645.569 194.306C646.354 193.107 646.747 191.681 646.747 190.028C646.747 188.457 646.333 187.052 645.507 185.812C644.68 184.531 643.254 183.89 641.229 183.89C639.245 183.89 637.529 184.448 636.083 185.564C634.677 186.68 633.623 188.168 632.921 190.028C632.218 191.847 631.867 193.789 631.867 195.856C631.867 198.377 632.363 200.692 633.355 202.8ZM660.563 209.31C657.587 209.31 655.479 208.256 654.239 206.148C652.999 204.04 652.379 201.312 652.379 197.964V188.54C652.379 186.845 652.234 185.688 651.945 185.068C651.656 184.448 650.953 183.952 649.837 183.58H657.401C656.285 183.952 655.582 184.448 655.293 185.068C655.004 185.688 654.859 186.845 654.859 188.54V197.344C654.859 204.412 656.926 207.946 661.059 207.946C662.671 207.946 664.18 207.491 665.585 206.582C666.99 205.631 668.272 204.247 669.429 202.428V188.54C669.429 186.845 669.284 185.688 668.995 185.068C668.706 184.448 668.003 183.952 666.887 183.58H674.451C673.335 183.952 672.632 184.448 672.343 185.068C672.054 185.688 671.909 186.845 671.909 188.54V204.35C671.909 205.59 671.93 206.458 671.971 206.954C672.054 207.45 672.26 207.698 672.591 207.698C672.839 207.698 673.046 207.595 673.211 207.388C673.418 207.181 673.645 206.892 673.893 206.52C673.562 207.388 673.232 208.07 672.901 208.566C672.57 209.062 672.116 209.31 671.537 209.31C670.669 209.31 670.09 208.897 669.801 208.07C669.553 207.243 669.429 205.673 669.429 203.358C668.354 205.383 667.032 206.892 665.461 207.884C663.89 208.835 662.258 209.31 660.563 209.31Z" fill="white"/>
<path d="M386.256 292.092C378.508 292.092 372.349 290.254 367.78 286.579C363.211 283.003 360.926 277.788 360.926 270.934C360.926 265.967 361.969 261.299 364.055 256.928C366.24 252.458 369.171 248.485 372.846 245.008C376.521 241.531 380.693 238.8 385.362 236.813C390.13 234.826 395.097 233.833 400.262 233.833C405.527 233.833 409.649 235.025 412.629 237.409C415.708 239.793 417.248 243.021 417.248 247.094C417.248 250.074 415.311 253.948 411.437 258.716C407.563 263.484 405.626 265.073 405.626 263.484C405.626 263.087 405.775 262.689 406.073 262.292C409.252 257.623 410.841 253.253 410.841 249.18C410.841 245.505 409.649 242.574 407.265 240.389C404.98 238.204 401.951 237.111 398.176 237.111C394.004 237.111 389.981 238.154 386.107 240.24C382.332 242.227 378.955 244.909 375.975 248.286C372.995 251.663 370.661 255.388 368.972 259.461C367.283 263.534 366.439 267.557 366.439 271.53C366.439 276.993 368.177 281.116 371.654 283.897C375.23 286.778 379.899 288.218 385.66 288.218C391.521 288.218 397.133 287.125 402.497 284.94C407.96 282.854 412.828 279.824 417.099 275.851C422.165 271.083 427.281 264.13 432.446 254.991L445.409 231.598C448.786 226.234 452.313 219.777 455.988 212.228C459.663 204.579 463.537 195.838 467.61 186.004C453.306 185.805 439.399 187.196 425.89 190.176C411.487 193.255 400.808 197.527 393.855 202.99C390.875 205.175 389.385 207.46 389.385 209.844C389.385 211.93 390.527 213.668 392.812 215.059C395.196 216.35 398.176 216.996 401.752 216.996C403.838 216.996 406.321 216.698 409.202 216.102C412.083 215.506 414.864 214.711 417.546 213.718C420.228 212.625 422.264 211.433 423.655 210.142C424.648 209.347 425.344 208.95 425.741 208.95C426.536 208.95 426.685 209.347 426.188 210.142C424.102 212.625 421.37 214.711 417.993 216.4C414.715 218.089 411.238 219.38 407.563 220.274C403.888 221.069 400.461 221.466 397.282 221.466C392.415 221.466 388.59 220.522 385.809 218.635C383.127 216.648 381.786 214.115 381.786 211.036C381.786 207.46 383.574 203.983 387.15 200.606C393.905 194.05 405.974 189.183 423.357 186.004C430.112 184.812 437.363 183.968 445.111 183.471C452.859 182.875 461.104 182.627 469.845 182.726C472.03 180.839 474.116 179.895 476.103 179.895C478.09 179.895 478.835 180.938 478.338 183.024C484.596 183.421 490.904 184.216 497.261 185.408C503.718 186.6 509.578 188.289 514.843 190.474C520.207 192.56 524.528 195.192 527.806 198.371C531.084 201.45 532.723 205.126 532.723 209.397C532.723 213.966 531.183 218.337 528.104 222.509C525.124 226.582 521.25 230.207 516.482 233.386C511.813 236.565 506.896 239.098 501.731 240.985C496.963 242.674 491.847 244.015 486.384 245.008C481.02 246.001 475.706 246.498 470.441 246.498C466.468 246.498 462.643 246.2 458.968 245.604C455.392 245.008 452.114 244.064 449.134 242.773C443.075 251.614 438.009 258.815 433.936 264.378C429.963 269.941 426.883 273.815 424.698 276C413.97 286.728 401.156 292.092 386.256 292.092ZM466.716 242.922C470.391 242.922 474.017 242.574 477.593 241.879C481.268 241.084 485.192 240.041 489.364 238.75C493.536 237.359 497.758 235.621 502.029 233.535C506.3 231.35 510.224 228.916 513.8 226.234C517.376 223.453 520.257 220.522 522.442 217.443C524.627 214.264 525.72 211.086 525.72 207.907C525.72 204.331 524.23 201.252 521.25 198.669C518.27 195.987 514.346 193.802 509.479 192.113C504.612 190.424 499.347 189.133 493.685 188.239C488.023 187.246 482.56 186.6 477.295 186.302L472.527 201.202C470.838 205.473 468.454 210.44 465.375 216.102C462.296 221.764 458.521 228.121 454.051 235.174L450.773 240.24C451.468 240.637 452.213 240.985 453.008 241.283C453.902 241.482 454.846 241.68 455.839 241.879C457.726 242.276 459.564 242.574 461.352 242.773C463.14 242.872 464.928 242.922 466.716 242.922ZM518.365 276.298C515.882 276.298 513.945 275.156 512.554 272.871C511.164 270.487 510.468 268.202 510.468 266.017C510.468 260.057 514.789 251.713 523.431 240.985C532.173 230.158 539.225 224.744 544.589 224.744C549.655 224.744 552.188 227.426 552.188 232.79C552.188 233.585 552.089 234.429 551.89 235.323C551.791 236.217 551.642 237.161 551.443 238.154C551.642 238.452 552.139 238.601 552.933 238.601C555.615 238.601 558.794 237.657 562.469 235.77C562.37 237.459 558.447 239.892 550.698 243.071C551.791 246.349 548.513 252.607 540.864 261.845C533.017 271.48 526.312 276.298 520.749 276.298H518.365ZM521.047 271.828C525.319 271.828 530.782 267.904 537.437 260.057C543.894 252.408 547.122 246.895 547.122 243.518C545.533 242.624 543.546 240.339 541.162 236.664C537.785 236.664 532.918 240.737 526.56 248.882C520.302 256.829 517.273 262.938 517.471 267.209C517.571 270.288 518.763 271.828 521.047 271.828ZM584.261 276.745C579.989 276.745 577.059 275.652 575.47 273.467C573.88 271.182 573.086 268.153 573.086 264.378C573.086 260.206 574.377 255.239 576.96 249.478C577.953 247.193 578.996 245.157 580.089 243.369C581.181 241.482 582.324 239.743 583.516 238.154C583.118 238.253 582.771 238.303 582.473 238.303C582.175 238.303 581.877 238.303 581.579 238.303C579.195 238.303 577.208 236.614 575.619 233.237L564.593 247.541C558.732 255.19 555.156 259.014 553.865 259.014C553.368 259.014 553.12 258.815 553.12 258.418C553.12 257.921 553.368 257.276 553.865 256.481C554.163 255.885 554.759 255.09 555.653 254.097C559.427 249.726 562.904 245.405 566.083 241.134C569.261 236.863 571.894 232.691 573.98 228.618C576.264 219.976 579.145 215.655 582.622 215.655C584.906 215.655 586.049 216.698 586.049 218.784C586.049 220.671 584.807 223.155 582.324 226.234C579.94 229.313 578.748 230.903 578.748 231.002C578.748 233.088 580.287 234.131 583.367 234.131C585.155 234.131 587.141 233.485 589.327 232.194L593.201 229.81C593.399 229.711 593.697 229.661 594.095 229.661C595.287 229.661 596.33 230.158 597.224 231.151C598.118 232.144 598.416 233.038 598.118 233.833L587.837 246.796C581.479 254.941 578.301 261.497 578.301 266.464C578.301 270.934 580.486 273.169 584.857 273.169C587.837 273.169 591.015 272.275 594.393 270.487C597.869 268.699 601.197 266.514 604.376 263.931C607.654 261.249 610.385 258.666 612.571 256.183L616.147 252.011C616.345 251.812 616.594 251.564 616.892 251.266C617.19 250.968 617.438 250.819 617.637 250.819C618.332 250.819 618.68 251.167 618.68 251.862C618.68 252.061 618.58 252.408 618.382 252.905C618.183 253.402 617.835 253.948 617.339 254.544L612.571 259.908C610.286 262.491 607.455 265.123 604.078 267.805C600.8 270.388 597.373 272.523 593.797 274.212C590.32 275.901 587.141 276.745 584.261 276.745ZM621.742 276.894C618.564 276.894 616.031 276.149 614.143 274.659C612.355 273.07 611.461 270.288 611.461 266.315C611.461 264.03 612.157 261.15 613.547 257.673C614.938 254.097 616.676 250.273 618.762 246.2C620.848 242.127 622.934 238.104 625.02 234.131C623.729 234.429 622.587 234.578 621.593 234.578C618.613 234.578 617.123 233.436 617.123 231.151C617.123 230.058 617.521 229.214 618.315 228.618C619.209 228.022 620.004 227.674 620.699 227.575C620.699 227.575 620.799 227.575 620.997 227.575C621.295 227.575 621.643 227.525 622.04 227.426H630.682C632.47 225.141 634.308 222.708 636.195 220.125C638.877 216.748 641.013 214.761 642.602 214.165H643.049C643.745 214.165 644.738 214.513 646.029 215.208C647.619 216.102 648.413 216.996 648.413 217.89C648.413 219.181 646.029 222.509 641.261 227.873C642.155 227.972 643.447 228.022 645.135 228.022C646.824 228.022 648.91 228.022 651.393 228.022C652.585 228.022 654.274 228.022 656.459 228.022C658.744 228.022 661.078 228.022 663.462 228.022C665.946 227.923 668.081 227.873 669.869 227.873C671.657 227.774 672.651 227.724 672.849 227.724C673.147 227.823 673.296 227.972 673.296 228.171C673.296 229.065 667.436 230.257 655.714 231.747C649.059 232.641 643.943 233.336 640.367 233.833C636.891 234.33 635.003 234.628 634.705 234.727C633.315 235.919 631.626 237.955 629.639 240.836C627.653 243.717 625.666 246.945 623.679 250.521C621.693 254.097 620.004 257.524 618.613 260.802C617.322 263.981 616.676 266.464 616.676 268.252C616.676 269.841 617.272 271.182 618.464 272.275C619.656 273.268 621.593 273.765 624.275 273.765C626.063 273.765 628.199 273.368 630.682 272.573C633.166 271.778 635.5 270.884 637.685 269.891C639.97 268.798 641.609 267.954 642.602 267.358C645.185 265.769 648.016 263.683 651.095 261.1C654.274 258.418 657.403 255.388 660.482 252.011C661.873 250.62 662.817 249.925 663.313 249.925C663.611 249.925 663.76 250.124 663.76 250.521C663.76 251.316 663.015 252.607 661.525 254.395C659.141 257.276 656.459 260.057 653.479 262.739C650.599 265.322 647.37 267.706 643.794 269.891C639.722 272.374 635.798 274.162 632.023 275.255C628.348 276.348 624.921 276.894 621.742 276.894ZM631.409 306.545C628.429 306.545 625.896 305.303 623.81 302.82C621.724 300.337 620.631 297.655 620.532 294.774C620.83 293.582 621.277 292.986 621.873 292.986C622.469 292.986 622.816 293.731 622.916 295.221C623.015 296.81 623.81 298.35 625.3 299.84C626.79 301.33 628.28 302.075 629.77 302.075C638.213 302.075 645.911 296.86 652.865 286.43C654.752 283.649 657.086 279.626 659.868 274.361C662.649 268.997 665.728 262.292 669.106 254.246L677.152 234.876C667.218 234.777 662.252 233.585 662.252 231.3C662.252 230.207 662.748 229.363 663.742 228.767C664.735 228.072 665.53 227.724 666.126 227.724C666.225 227.724 667.467 227.774 669.851 227.873C672.235 227.873 675.662 227.923 680.132 228.022C689.866 206.367 698.806 195.54 706.952 195.54C710.13 195.54 713.259 197.03 716.339 200.01C717.133 200.805 717.531 201.848 717.531 203.139C717.531 206.218 716.637 207.758 714.849 207.758C714.352 207.758 713.855 207.361 713.359 206.566C712.961 205.871 712.316 205.324 711.422 204.927C710.528 204.43 709.683 204.182 708.889 204.182C705.909 204.182 703.276 205.324 700.992 207.609C698.806 209.794 696.72 212.675 694.734 216.251C692.846 219.827 690.81 223.751 688.625 228.022H690.413C701.24 228.022 708.442 227.873 712.018 227.575C712.415 227.674 712.614 227.873 712.614 228.171C712.614 228.966 709.087 230.058 702.035 231.449C699.253 231.846 696.522 232.293 693.84 232.79C691.158 233.287 688.426 233.783 685.645 234.28C684.353 237.061 682.764 240.389 680.877 244.263C678.989 248.038 676.854 252.259 674.47 256.928C669.801 265.669 665.977 272.623 662.997 277.788C660.017 282.953 657.931 286.38 656.739 288.069C648.097 300.386 639.653 306.545 631.409 306.545ZM699.232 276.298C696.748 276.298 694.811 275.156 693.421 272.871C692.03 270.487 691.335 268.202 691.335 266.017C691.335 260.057 695.656 251.713 704.298 240.985C713.039 230.158 720.092 224.744 725.456 224.744C730.522 224.744 733.055 227.426 733.055 232.79C733.055 233.585 732.955 234.429 732.757 235.323C732.657 236.217 732.508 237.161 732.31 238.154C732.508 238.452 733.005 238.601 733.8 238.601C736.482 238.601 739.66 237.657 743.336 235.77C743.236 237.459 739.313 239.892 731.565 243.071C732.657 246.349 729.379 252.607 721.731 261.845C713.883 271.48 707.178 276.298 701.616 276.298H699.232ZM701.914 271.828C706.185 271.828 711.648 267.904 718.304 260.057C724.76 252.408 727.989 246.895 727.989 243.518C726.399 242.624 724.413 240.339 722.029 236.664C718.651 236.664 713.784 240.737 707.427 248.882C701.169 256.829 698.139 262.938 698.338 267.209C698.437 270.288 699.629 271.828 701.914 271.828ZM746.055 276.298C743.174 276.298 740.492 275.603 738.009 274.212C735.526 272.722 734.284 270.288 734.284 266.911C734.284 262.242 735.923 256.68 739.201 250.223C742.578 243.766 746.403 237.061 750.674 230.108C762.296 211.235 770.541 201.798 775.408 201.798C776.401 201.798 777.395 202.195 778.388 202.99C779.481 203.685 780.077 204.48 780.176 205.374L769.746 219.38C765.673 224.843 761.998 229.909 758.72 234.578C755.442 239.147 752.611 243.27 750.227 246.945C749.035 248.832 747.694 250.968 746.204 253.352C744.714 255.736 743.373 258.219 742.181 260.802C741.088 263.285 740.542 265.818 740.542 268.401C740.542 269.593 740.89 270.686 741.585 271.679C742.28 272.573 743.522 273.02 745.31 273.02C748.489 273.02 752.661 271.331 757.826 267.954C762.991 264.477 768.107 259.709 773.173 253.65C773.67 253.054 774.216 252.508 774.812 252.011C775.408 251.514 775.905 251.266 776.302 251.266C776.799 251.266 777.047 251.564 777.047 252.16C777.047 252.458 776.699 253.054 776.004 253.948C775.408 254.743 774.911 255.388 774.514 255.885L770.938 259.908C768.951 262.093 766.567 264.477 763.786 267.06C761.104 269.643 758.223 271.828 755.144 273.616C752.164 275.404 749.134 276.298 746.055 276.298ZM803.891 224.744C802.203 224.744 800.713 224.198 799.421 223.105C798.229 222.012 797.633 220.771 797.633 219.38C797.633 216.599 799.521 215.208 803.295 215.208C804.686 215.208 806.077 215.705 807.467 216.698C808.858 217.592 809.553 218.734 809.553 220.125C809.553 221.317 808.908 222.41 807.616 223.403C806.325 224.297 805.083 224.744 803.891 224.744ZM776.326 277.639C774.141 277.639 772.353 276.944 770.962 275.553C769.472 274.063 768.727 271.48 768.727 267.805C768.727 265.719 769.224 263.335 770.217 260.653C771.111 257.872 772.254 255.09 773.644 252.309C775.134 249.528 776.575 247.044 777.965 244.859C783.528 235.82 788.097 231.25 791.673 231.151C792.567 231.151 793.66 231.548 794.951 232.343C796.243 233.038 796.888 233.833 796.888 234.727C796.888 234.727 793.114 239.594 785.564 249.329C778.114 258.964 774.389 265.818 774.389 269.891C774.389 273.07 775.631 274.659 778.114 274.659C779.704 274.659 781.74 274.013 784.223 272.722C786.806 271.331 789.488 269.593 792.269 267.507C795.051 265.421 797.683 263.186 800.166 260.802C802.749 258.418 804.835 256.233 806.424 254.246C807.418 252.955 808.262 252.061 808.957 251.564C809.752 251.067 810.249 250.819 810.447 250.819C810.845 250.819 811.043 251.117 811.043 251.713C811.043 252.21 810.447 253.203 809.255 254.693C808.163 256.183 806.623 257.921 804.636 259.908C802.252 262.292 799.62 264.875 796.739 267.656C793.859 270.437 790.73 272.821 787.352 274.808C783.975 276.695 780.3 277.639 776.326 277.639ZM810.982 276.298C808.498 276.298 806.561 275.156 805.171 272.871C803.78 270.487 803.085 268.202 803.085 266.017C803.085 260.057 807.406 251.713 816.048 240.985C824.789 230.158 831.842 224.744 837.206 224.744C842.272 224.744 844.805 227.426 844.805 232.79C844.805 233.585 844.705 234.429 844.507 235.323C844.407 236.217 844.258 237.161 844.06 238.154C844.258 238.452 844.755 238.601 845.55 238.601C848.232 238.601 851.41 237.657 855.086 235.77C854.986 237.459 851.063 239.892 843.315 243.071C844.407 246.349 841.129 252.607 833.481 261.845C825.633 271.48 818.928 276.298 813.366 276.298H810.982ZM813.664 271.828C817.935 271.828 823.398 267.904 830.054 260.057C836.51 252.408 839.739 246.895 839.739 243.518C838.149 242.624 836.163 240.339 833.779 236.664C830.401 236.664 825.534 240.737 819.177 248.882C812.919 256.829 809.889 262.938 810.088 267.209C810.187 270.288 811.379 271.828 813.664 271.828Z" fill="white"/>
<defs>
<radialGradient id="paint0_radial_2_278" cx="0" cy="0" r="1" gradientUnits="userSpaceOnUse" gradientTransform="translate(600 248.5) rotate(-90) scale(248.5 600)">
<stop stop-color="#B1327D"/>
<stop offset="0.288462" stop-color="#702852"/>
<stop offset="0.625" stop-color="#4B1535"/>
<stop offset="1" stop-color="#4B1535"/>
</radialGradient>
</defs>
</svg>
