<?xml version="1.0" encoding="UTF-8"?>
<svg id="Camada_1" data-name="Camada 1" xmlns="http://www.w3.org/2000/svg" viewBox="0 0 2976.61 1256.62">
  <defs>
    <style>
      .cls-1 {
        fill: #f3c8dc;
      }

      .cls-2 {
        fill: #4b1535;
      }
    </style>
  </defs>
  <g>
    <path class="cls-1" d="M2600.01,84.53c32.17,8.01,60.06,17.86,82.49,26.99-6.85-3.71-37.41-19.71-84.49-37.58l2,10.59Z"/>
    <path class="cls-1" d="M2620.82,1016.6c38.75-32.24,61.93-61.16,61.68-62.03-.25-.88-23.74,26.89-61.13,52.23-.18,3.28-.37,6.53-.56,9.8Z"/>
  </g>
  <g>
    <path class="cls-1" d="M2584.52,1151.77c20.71-141.29,34.78-410.67,48.93-465.39,12.22-47.26,50.99-82.93,99.04-91.54l172.51-30.93-164.68-37.55c-48.57-11.07-85.96-49.89-95.2-98.85l-65.48-346.82-59.1,345.79c-8.46,49.5-45.68,89.16-94.54,100.74l-161.95,38.38,168.42,39.36c47.95,11.21,84.89,49.48,94.37,97.8l57.68,449.01Z"/>
    <path class="cls-1" d="M2583.58,1256.62l-70.91-552.06c-8.23-41.78-41.04-75.78-83.44-85.7l-227.53-53.19,221.01-52.36c43.37-10.28,76.24-45.32,83.74-89.25L2578.93,0l80.22,424.85c8.21,43.39,41.31,77.76,84.34,87.58l233.12,53.14-241.59,43.32c-42.52,7.63-76.96,39.44-87.73,81.07-6.94,26.86-14.35,113.14-22.19,204.51-7.63,89.05-16.28,189.99-26.45,259.37l-15.07,102.78ZM2326.39,565.5l109.32,25.55c53.34,12.46,94.6,55.23,105.14,108.95l43,334.45c4.58-46.54,8.83-96.1,12.79-142.43,8.28-96.61,15.44-180.04,22.98-209.22,13.57-52.39,56.87-92.43,110.35-102.04l103.43-18.54-96.26-21.94c-54.12-12.34-95.75-55.57-106.05-110.13l-50.75-268.79-45.73,267.51c-9.45,55.26-50.79,99.31-105.31,112.23l-102.9,24.39Z"/>
  </g>
  <g>
    <path class="cls-2" d="M2584.52,727.72c5.47-37.32,9.19-108.48,12.93-122.93,3.23-12.48,13.47-21.91,26.16-24.18,19.63-2.9,39.26-5.8,58.89-8.71-18.94-3.13-37.88-6.26-56.83-9.38-12.83-2.93-22.71-13.18-25.15-26.11l-17.3-91.61-15.61,91.34c-2.23,13.08-12.07,23.55-24.97,26.61-21.21,3.42-42.42,6.84-63.63,10.25,21.78,3.43,43.56,6.85,65.34,10.28,12.67,2.96,22.42,13.07,24.93,25.83l15.24,118.61Z"/>
    <path class="cls-2" d="M2584.27,755.41l-18.72-145.81c-2.19-11.03-10.86-20.02-22.06-22.65l-88.41-13.92,86.97-14.01c11.17-2.66,19.86-11.9,21.85-23.52l19.14-112.01,21.2,112.22c2.17,11.45,10.91,20.54,22.29,23.13l80.33,13.27-82.7,12.23c-11.12,1.99-20.2,10.4-23.05,21.39-1.83,7.08-3.77,29.84-5.85,53.93-2.01,23.56-4.3,50.26-7,68.61l-3.98,27.14ZM2502.99,572.96l41.94,6.61c14.38,3.33,25.27,14.64,28.06,28.83l11.35,88.34c1.22-12.32,2.34-25.45,3.4-37.73,2.19-25.47,4.07-47.48,6.06-55.18,3.58-13.83,15.01-24.41,29.13-26.95l35.14-5.2-33.01-5.45c-14.52-3.3-25.54-14.72-28.23-29.14l-13.41-71-12.09,70.67c-2.5,14.61-13.43,26.23-27.83,29.63l-40.52,6.56Z"/>
    <circle class="cls-2" cx="2584.52" cy="790.49" r="4.35"/>
    <circle class="cls-2" cx="2584.52" cy="773.85" r="3.12"/>
    <circle class="cls-2" cx="2584.52" cy="382.03" r="4.35"/>
    <circle class="cls-2" cx="2584.52" cy="364.16" r="5.27"/>
    <circle class="cls-2" cx="2584.52" cy="808.45" r="5.27"/>
    <circle class="cls-2" cx="2584.52" cy="398.66" r="3.12"/>
  </g>
  <path class="cls-1" d="M2403.2,63.33c56.74-6.08,108.32-.24,151.64,9.75l1.57-9.17c-108.92-40.52-312.1-89.48-505.08,7.84-109.59,55.27-175.36,137.28-212.84,198.03-.02.22-.01.44-.04.66l-.53,90.56c-.48,84.57-1.07,170.69-1.66,256.8-.56,79.87-1.1,159.63-1.56,238.28,36.45,52.57,83.12,99.19,137.31,137.26l60.01,36.83c60.91,32.38,128.88,54.66,201.69,63.12,120.64,14.01,232.11-18.79,311.79-54.11l-1.45-11.32c-44.03,14.04-96.92,23.71-153.62,18.53-199.79-18.27-441.59-221.38-444.39-484.82-2.74-257.64,224.15-473.28,457.16-498.25Z"/>
  <g>
    <path class="cls-1" d="M50.92,954.41c6.98-14.99,10.49-42.91,10.49-83.88v-329.46c0-40.92-1.77-67.61-5.26-80.12-3.49-12.46-11.72-18.7-24.7-18.7-7,0-17.47,1.47-31.46,4.47,52.91-20.96,93.34-44.41,121.31-70.39v494.19c0,40.97,3.49,68.89,10.49,83.88,6.98,14.97,23.96,26.96,50.92,35.93H0c26.96-8.97,43.94-20.96,50.92-35.93ZM31.46,294.79c-10.99-10.96-16.47-24.45-16.47-40.43,0-16.96,5.48-30.7,16.47-41.19,10.99-10.47,24.45-15.73,40.43-15.73,16.98,0,30.72,5.26,41.19,15.73,10.49,10.49,15.73,24.23,15.73,41.19,0,15.97-5.23,29.47-15.73,40.43-10.47,11.01-24.21,16.49-41.19,16.49-15.97,0-29.44-5.48-40.43-16.49Z"/>
    <path class="cls-1" d="M293.14,952.16c-40.43-27.94-60.65-67.39-60.65-118.31,0-25.95,6.17-50.71,18.73-74.15,17.88-33.37,11.05-20.3-.98,20.6-1.66,5.63-5.75,20.49-5.75,40.05,0,46.94,17.72,83.63,53.16,110.07,35.44,26.47,77.12,39.69,125.04,39.69,41.95,0,78.13-10.72,108.58-32.19,30.45-21.45,45.69-51.17,45.69-89.11s-14.5-67.88-43.43-92.85c-28.97-24.94-71.88-51.41-128.8-79.38-56.92-28.93-99.85-55.64-128.78-80.12-28.97-24.45-43.45-55.64-43.45-93.58,0-42.91,19.71-76.6,59.15-101.08,39.44-24.45,90.09-36.69,152-36.69s105.06,9.98,138.53,29.93c33.45,19.98,50.16,44.92,50.16,74.88,0,21.97-8.75,40.94-26.2,56.92-17.47,15.97-40.7,23.96-69.65,23.96-24.94,0-46.67-6.98-65.13-20.96-18.48-13.98-15.73-29.96-3.76-20.96,11.99,8.97,25.46,13.47,40.45,13.47,19.96,0,35.68-6,47.16-17.96,11.48-11.99,17.23-26.44,17.23-43.43,0-25.95-11.5-45.93-34.46-59.92-22.98-13.96-55.39-20.96-97.32-20.96s-75.89,8.75-104.84,26.2c-28.97,17.5-43.43,42.69-43.43,75.64,0,30.94,12.73,56.89,38.19,77.86,25.46,20.96,65.13,45.93,119.05,74.88,40.92,20.96,74.12,39.94,99.58,56.92,25.46,16.98,46.92,37.7,64.41,62.15,17.45,24.48,26.2,52.67,26.2,84.61,0,48.91-20.23,87.1-60.65,114.55-40.43,27.48-88.13,41.19-143.01,41.19s-102.58-13.96-143.03-41.93Z"/>
    <path class="cls-1" d="M659.59,955.88c-36.47-32.96-54.68-78.86-54.68-137.77,0-63.87,22.46-113.56,67.41-149,44.92-35.44,99.8-53.18,164.73-53.18,60.87,0,117.3,15.51,169.2,46.42v-56.89c0-74.88-13.74-129.29-41.16-163.23-27.48-33.94-63.16-50.92-107.08-50.92-31.97,0-56.43,8.01-73.38,23.96-17.01,15.97-25.46,34.95-25.46,56.92,0,16.98,5.73,31.43,17.23,43.43,11.45,11.97,27.18,17.96,47.16,17.96,14.97,0,28.46-4.5,40.43-13.47,11.99-8.99,14.72,6.98-3.74,20.96-18.48,13.98-40.21,20.96-65.15,20.96-28.95,0-52.17-8.23-69.62-24.72-17.47-16.47-26.22-35.68-26.22-57.65,0-27.94,13.22-52.15,39.69-72.62,26.44-20.45,65.15-30.7,116.07-30.7,58.88,0,108.8,18.97,149.74,56.89,40.94,37.97,61.41,101.35,61.41,190.19v262.08c0,29.96-.11,50.11,1.39,62.08.53,4.23,8.5,11.74,30.12,10.97,19.08-.68,46.8-9.78,48.35-5.56,4.71,12.78-48.76,48.59-89.67,49.35-16.81.31-25.01-5.43-27.59-7.4-5.1-3.89-9.07-9.52-12.02-17.33-7-18.48-10.49-49.18-10.49-92.11v-20.96c-21.97,44.92-52.4,79.63-91.35,104.08-38.93,24.48-79.87,36.69-122.81,36.69-51.9,0-96.09-16.47-132.51-49.42ZM1006.25,842.07v-164.73c-41.93-23.96-88.35-35.95-139.27-35.95-56.89,0-104.82,15.73-143.77,47.19-38.93,31.46-58.39,74.64-58.39,129.54,0,49.94,13.47,88.13,40.43,114.57,26.96,26.44,61.88,39.67,104.84,39.67,84.84,0,150.23-43.43,196.16-130.28Z"/>
    <path class="cls-1" d="M1239.91,958.16c4.31-7.57,5.8-15.74,7.86-32.2,1.75-13.97,2.63-31.2,2.63-51.68v-329.46c0-40.92-1.77-67.61-5.26-80.12-3.49-12.46-11.72-18.7-24.7-18.7-7,0-17.47,1.47-31.46,4.47,52.91-20.96,93.34-44.41,121.31-70.39v206.68c13.98-58.91,38.44-109.34,73.38-151.26,34.95-41.93,83.88-62.89,146.77-62.89,36.91,0,65.64,9.24,86.11,27.7,20.45,18.48,30.7,40.21,30.7,65.15,0,22.98-8.23,42.66-24.72,59.15-16.47,16.47-39.17,24.7-68.12,24.7-24.97,0-46.42-7.5-64.39-22.46-17.99-14.97-27.48-34.92-28.46-59.89,3.98,17.96,11.97,31.43,23.96,40.43,11.97,8.99,25.46,13.47,40.43,13.47,18.95,0,33.94-5.97,44.92-17.96,10.99-11.97,16.47-26.44,16.47-43.43s-6.49-31.95-19.46-44.92c-12.98-12.98-31.43-19.46-55.39-19.46-42.96,0-79.38,15.73-109.34,47.16-3.17,3.33-7.37,7.79-12.25,13.6-35.85,42.74-55.14,100.97-55.14,100.97-15.56,45.45-18.45,81.11-22.45,130.28-1.57,19.32-2.07,52.81-3.08,119.78-.3,19.81.15-3.51.62,67.8.3,45.71.88,68.86,9.94,83.49,5.69,9.19,19.03,25.63,51.6,35.44-157.97,3.41-194.97.91-195.16-2.45-.21-3.76,45.91-3.57,62.68-32.98Z"/>
    <path class="cls-1" d="M1728.11,958.16c6.98-14.99,10.49-42.91,10.49-83.88v-329.46c0-40.92-1.77-67.61-5.26-80.12-3.49-12.46-11.72-18.7-24.7-18.7-7,0-17.47,1.47-31.46,4.47,52.91-20.96,93.34-44.41,121.31-70.39v494.19c0,40.97,3.49,68.89,10.49,83.88,6.98,14.97,23.96,26.96,50.92,35.93h-182.72c26.96-8.97,43.94-20.96,50.92-35.93ZM1705.58,299.95c-10.99-10.96-16.47-24.45-16.47-40.43,0-16.96,5.48-30.7,16.47-41.19,10.99-10.47,24.45-15.73,40.43-15.73,16.98,0,30.72,5.26,41.19,15.73,10.49,10.49,15.73,24.23,15.73,41.19,0,15.97-5.23,29.47-15.73,40.43-10.47,11.01-24.21,16.49-41.19,16.49-15.97,0-29.44-5.48-40.43-16.49Z"/>
  </g>
</svg>